<mxfile host="Electron" modified="2024-07-06T07:46:13.881Z" agent="Mozilla/5.0 (Windows NT 10.0; Win64; x64) AppleWebKit/537.36 (KHTML, like Gecko) draw.io/24.5.3 Chrome/124.0.6367.207 Electron/30.0.6 Safari/537.36" etag="rV5Wn3aZbC5RfBwNaf-o" version="24.5.3" type="device">
  <diagram name="Page-1" id="ZgTmO9pRHgYxKYWseB4_">
    <mxGraphModel dx="2116" dy="1047" grid="1" gridSize="10" guides="1" tooltips="1" connect="1" arrows="1" fold="1" page="1" pageScale="1" pageWidth="3300" pageHeight="4681" math="0" shadow="0">
      <root>
        <mxCell id="0" />
        <mxCell id="1" parent="0" />
        <mxCell id="6TX6r6Tg67Vs55nlKR88-12" value="Private subnet" style="points=[[0,0],[0.25,0],[0.5,0],[0.75,0],[1,0],[1,0.25],[1,0.5],[1,0.75],[1,1],[0.75,1],[0.5,1],[0.25,1],[0,1],[0,0.75],[0,0.5],[0,0.25]];outlineConnect=0;gradientColor=none;html=1;whiteSpace=wrap;fontSize=12;fontStyle=0;container=1;pointerEvents=0;collapsible=0;recursiveResize=0;shape=mxgraph.aws4.group;grIcon=mxgraph.aws4.group_security_group;grStroke=0;strokeColor=#00A4A6;fillColor=#E6F6F7;verticalAlign=top;align=left;spacingLeft=30;fontColor=#147EBA;dashed=0;" vertex="1" parent="1">
          <mxGeometry x="670" y="74.25" width="620" height="365.75" as="geometry" />
        </mxCell>
        <mxCell id="m8AJ33ol35Gu7rsAa2ap-26" style="edgeStyle=orthogonalEdgeStyle;rounded=0;orthogonalLoop=1;jettySize=auto;html=1;" parent="1" source="uCFCVgsphtdDFgfxJPzT-8" target="m8AJ33ol35Gu7rsAa2ap-29" edge="1">
          <mxGeometry relative="1" as="geometry">
            <mxPoint x="490" y="326.5000000000001" as="targetPoint" />
          </mxGeometry>
        </mxCell>
        <mxCell id="uCFCVgsphtdDFgfxJPzT-8" value="&lt;span style=&quot;color: rgb(240, 240, 240);&quot;&gt;mediastack API&lt;/span&gt;" style="whiteSpace=wrap;html=1;verticalAlign=top;fillColor=#8C4FFF;strokeColor=#ffffff;fontColor=#232F3E;sketch=0;dashed=0;fontStyle=0;" parent="1" vertex="1">
          <mxGeometry x="210" y="311.5" width="100" height="30" as="geometry" />
        </mxCell>
        <mxCell id="6TX6r6Tg67Vs55nlKR88-27" style="edgeStyle=orthogonalEdgeStyle;rounded=0;orthogonalLoop=1;jettySize=auto;html=1;" edge="1" parent="1" source="uCFCVgsphtdDFgfxJPzT-29" target="6TX6r6Tg67Vs55nlKR88-26">
          <mxGeometry relative="1" as="geometry">
            <Array as="points">
              <mxPoint x="1350" y="347" />
              <mxPoint x="1350" y="350" />
            </Array>
          </mxGeometry>
        </mxCell>
        <mxCell id="uCFCVgsphtdDFgfxJPzT-29" value="" style="image;aspect=fixed;html=1;points=[];align=center;fontSize=12;image=img/lib/azure2/general/Dashboard2.svg;" parent="1" vertex="1">
          <mxGeometry x="1151" y="321.5" width="72.5" height="51.18" as="geometry" />
        </mxCell>
        <mxCell id="uCFCVgsphtdDFgfxJPzT-36" value="&lt;font style=&quot;font-size: 14px;&quot;&gt;Streamlit&lt;/font&gt;" style="text;html=1;align=center;verticalAlign=middle;resizable=0;points=[];autosize=1;strokeColor=none;fillColor=none;" parent="1" vertex="1">
          <mxGeometry x="1145" y="272" width="80" height="30" as="geometry" />
        </mxCell>
        <mxCell id="m8AJ33ol35Gu7rsAa2ap-21" value="&lt;font style=&quot;font-size: 14px;&quot;&gt;Ingest data&lt;/font&gt;" style="text;html=1;align=center;verticalAlign=middle;resizable=0;points=[];autosize=1;strokeColor=none;fillColor=none;" parent="1" vertex="1">
          <mxGeometry x="385" y="292" width="90" height="30" as="geometry" />
        </mxCell>
        <mxCell id="m8AJ33ol35Gu7rsAa2ap-29" value="" style="sketch=0;points=[[0,0,0],[0.25,0,0],[0.5,0,0],[0.75,0,0],[1,0,0],[0,1,0],[0.25,1,0],[0.5,1,0],[0.75,1,0],[1,1,0],[0,0.25,0],[0,0.5,0],[0,0.75,0],[1,0.25,0],[1,0.5,0],[1,0.75,0]];outlineConnect=0;fontColor=#232F3E;fillColor=#E7157B;strokeColor=#ffffff;dashed=0;verticalLabelPosition=bottom;verticalAlign=top;align=center;html=1;fontSize=12;fontStyle=0;aspect=fixed;shape=mxgraph.aws4.resourceIcon;resIcon=mxgraph.aws4.eventbridge;" parent="1" vertex="1">
          <mxGeometry x="521" y="286.7500000000001" width="78" height="78" as="geometry" />
        </mxCell>
        <mxCell id="m8AJ33ol35Gu7rsAa2ap-30" style="edgeStyle=orthogonalEdgeStyle;rounded=0;orthogonalLoop=1;jettySize=auto;html=1;entryX=0;entryY=0.5;entryDx=0;entryDy=0;entryPerimeter=0;" parent="1" source="m8AJ33ol35Gu7rsAa2ap-29" target="m8AJ33ol35Gu7rsAa2ap-25" edge="1">
          <mxGeometry relative="1" as="geometry" />
        </mxCell>
        <mxCell id="m8AJ33ol35Gu7rsAa2ap-31" value="&lt;font style=&quot;font-size: 14px;&quot;&gt;AWS Event Bridge&lt;/font&gt;" style="text;html=1;align=center;verticalAlign=middle;resizable=0;points=[];autosize=1;strokeColor=none;fillColor=none;" parent="1" vertex="1">
          <mxGeometry x="490" y="249.25" width="140" height="30" as="geometry" />
        </mxCell>
        <mxCell id="CWTFZ16Qp7-V9d8X5hSK-2" value="&lt;font style=&quot;font-size: 14px;&quot;&gt;Every 2 hours&lt;/font&gt;" style="text;html=1;align=center;verticalAlign=middle;resizable=0;points=[];autosize=1;strokeColor=none;fillColor=none;" parent="1" vertex="1">
          <mxGeometry x="375" y="329.5" width="110" height="30" as="geometry" />
        </mxCell>
        <mxCell id="6TX6r6Tg67Vs55nlKR88-6" value="&lt;b&gt;AWS Cloud&lt;/b&gt;" style="sketch=0;outlineConnect=0;gradientColor=none;html=1;whiteSpace=wrap;fontSize=12;fontStyle=0;shape=mxgraph.aws4.group;grIcon=mxgraph.aws4.group_aws_cloud;strokeColor=#AAB7B8;fillColor=none;verticalAlign=top;align=left;spacingLeft=30;fontColor=#AAB7B8;dashed=0;" vertex="1" parent="1">
          <mxGeometry x="380" y="20" width="970" height="537" as="geometry" />
        </mxCell>
        <mxCell id="6TX6r6Tg67Vs55nlKR88-5" value="Region" style="points=[[0,0],[0.25,0],[0.5,0],[0.75,0],[1,0],[1,0.25],[1,0.5],[1,0.75],[1,1],[0.75,1],[0.5,1],[0.25,1],[0,1],[0,0.75],[0,0.5],[0,0.25]];outlineConnect=0;gradientColor=none;html=1;whiteSpace=wrap;fontSize=12;fontStyle=0;container=1;pointerEvents=0;collapsible=0;recursiveResize=0;shape=mxgraph.aws4.group;grIcon=mxgraph.aws4.group_region;strokeColor=#00A4A6;fillColor=none;verticalAlign=top;align=left;spacingLeft=30;fontColor=#147EBA;dashed=1;" vertex="1" parent="1">
          <mxGeometry x="490" y="40" width="850" height="450" as="geometry" />
        </mxCell>
        <mxCell id="6TX6r6Tg67Vs55nlKR88-10" value="&lt;font style=&quot;font-size: 14px;&quot;&gt;Event source&lt;/font&gt;" style="text;html=1;align=center;verticalAlign=middle;resizable=0;points=[];autosize=1;strokeColor=none;fillColor=none;" vertex="1" parent="1">
          <mxGeometry x="205" y="273.5" width="110" height="30" as="geometry" />
        </mxCell>
        <mxCell id="m8AJ33ol35Gu7rsAa2ap-15" value="" style="outlineConnect=0;dashed=0;verticalLabelPosition=bottom;verticalAlign=top;align=center;html=1;shape=mxgraph.aws3.rds;fillColor=#2E73B8;gradientColor=none;" parent="1" vertex="1">
          <mxGeometry x="932.5" y="138.25" width="72" height="81" as="geometry" />
        </mxCell>
        <mxCell id="m8AJ33ol35Gu7rsAa2ap-16" value="AWS RDS" style="text;html=1;align=center;verticalAlign=middle;resizable=0;points=[];autosize=1;strokeColor=none;fillColor=none;" parent="1" vertex="1">
          <mxGeometry x="928" y="98.25" width="80" height="30" as="geometry" />
        </mxCell>
        <mxCell id="uCFCVgsphtdDFgfxJPzT-34" value="AWS EC2" style="text;html=1;align=center;verticalAlign=middle;resizable=0;points=[];autosize=1;strokeColor=none;fillColor=none;" parent="1" vertex="1">
          <mxGeometry x="928" y="260" width="80" height="30" as="geometry" />
        </mxCell>
        <mxCell id="m8AJ33ol35Gu7rsAa2ap-10" value="" style="outlineConnect=0;dashed=0;verticalLabelPosition=bottom;verticalAlign=top;align=center;html=1;shape=mxgraph.aws3.ec2;fillColor=#F58534;gradientColor=none;" parent="1" vertex="1">
          <mxGeometry x="928" y="290" width="76.5" height="93" as="geometry" />
        </mxCell>
        <mxCell id="jn1DwHGVyes7XWvPVQ7c-1" style="edgeStyle=orthogonalEdgeStyle;rounded=0;orthogonalLoop=1;jettySize=auto;html=1;" parent="1" source="m8AJ33ol35Gu7rsAa2ap-15" target="uCFCVgsphtdDFgfxJPzT-34" edge="1">
          <mxGeometry relative="1" as="geometry" />
        </mxCell>
        <mxCell id="m8AJ33ol35Gu7rsAa2ap-19" value="&lt;font style=&quot;font-size: 14px;&quot;&gt;Write data&lt;/font&gt;" style="text;html=1;align=center;verticalAlign=middle;resizable=0;points=[];autosize=1;strokeColor=none;fillColor=none;" parent="1" vertex="1">
          <mxGeometry x="775" y="272" width="90" height="30" as="geometry" />
        </mxCell>
        <mxCell id="m8AJ33ol35Gu7rsAa2ap-20" value="&lt;font style=&quot;font-size: 14px;&quot;&gt;Read data&lt;/font&gt;" style="text;html=1;align=center;verticalAlign=middle;resizable=0;points=[];autosize=1;strokeColor=none;fillColor=none;" parent="1" vertex="1">
          <mxGeometry x="979.5" y="219.25" width="90" height="30" as="geometry" />
        </mxCell>
        <mxCell id="m8AJ33ol35Gu7rsAa2ap-25" value="" style="outlineConnect=0;dashed=0;verticalLabelPosition=bottom;verticalAlign=top;align=center;html=1;shape=mxgraph.aws3.lambda_function;fillColor=#F58534;gradientColor=none;" parent="1" vertex="1">
          <mxGeometry x="730" y="290.5" width="69" height="72" as="geometry" />
        </mxCell>
        <mxCell id="CWTFZ16Qp7-V9d8X5hSK-1" value="&lt;font style=&quot;font-size: 14px;&quot;&gt;AWS Lambda&lt;/font&gt;" style="text;html=1;align=center;verticalAlign=middle;resizable=0;points=[];autosize=1;strokeColor=none;fillColor=none;" parent="1" vertex="1">
          <mxGeometry x="704" y="365.5" width="110" height="30" as="geometry" />
        </mxCell>
        <mxCell id="m8AJ33ol35Gu7rsAa2ap-23" style="edgeStyle=orthogonalEdgeStyle;rounded=0;orthogonalLoop=1;jettySize=auto;html=1;entryX=0.012;entryY=0.294;entryDx=0;entryDy=0;entryPerimeter=0;" parent="1" source="m8AJ33ol35Gu7rsAa2ap-10" target="uCFCVgsphtdDFgfxJPzT-29" edge="1">
          <mxGeometry relative="1" as="geometry" />
        </mxCell>
        <mxCell id="jn1DwHGVyes7XWvPVQ7c-2" style="edgeStyle=orthogonalEdgeStyle;rounded=0;orthogonalLoop=1;jettySize=auto;html=1;entryX=0;entryY=0.5;entryDx=0;entryDy=0;entryPerimeter=0;" parent="1" source="m8AJ33ol35Gu7rsAa2ap-25" target="m8AJ33ol35Gu7rsAa2ap-15" edge="1">
          <mxGeometry relative="1" as="geometry" />
        </mxCell>
        <mxCell id="6TX6r6Tg67Vs55nlKR88-26" value="devices" style="sketch=0;outlineConnect=0;gradientColor=none;fontColor=#545B64;strokeColor=none;fillColor=#879196;dashed=0;verticalLabelPosition=bottom;verticalAlign=top;align=center;html=1;fontSize=12;fontStyle=0;aspect=fixed;shape=mxgraph.aws4.illustration_devices;pointerEvents=1" vertex="1" parent="1">
          <mxGeometry x="1440" y="292.5" width="100" height="73" as="geometry" />
        </mxCell>
        <mxCell id="6TX6r6Tg67Vs55nlKR88-9" value="VPC" style="points=[[0,0],[0.25,0],[0.5,0],[0.75,0],[1,0],[1,0.25],[1,0.5],[1,0.75],[1,1],[0.75,1],[0.5,1],[0.25,1],[0,1],[0,0.75],[0,0.5],[0,0.25]];outlineConnect=0;gradientColor=none;html=1;whiteSpace=wrap;fontSize=12;fontStyle=0;container=1;pointerEvents=0;collapsible=0;recursiveResize=0;shape=mxgraph.aws4.group;grIcon=mxgraph.aws4.group_vpc2;strokeColor=#8C4FFF;fillColor=none;verticalAlign=top;align=left;spacingLeft=30;fontColor=#AAB7B8;dashed=0;" vertex="1" parent="1">
          <mxGeometry x="640" y="44.25" width="670" height="435.75" as="geometry" />
        </mxCell>
      </root>
    </mxGraphModel>
  </diagram>
</mxfile>
